<mxfile host="app.diagrams.net" agent="Mozilla/5.0 (Windows NT 10.0; Win64; x64; rv:144.0) Gecko/20100101 Firefox/144.0" version="28.2.8">
  <diagram name="Page-1" id="13e1069c-82ec-6db2-03f1-153e76fe0fe0">
    <mxGraphModel dx="1025" dy="499" grid="1" gridSize="10" guides="1" tooltips="1" connect="1" arrows="1" fold="1" page="1" pageScale="1" pageWidth="1100" pageHeight="850" background="none" math="0" shadow="0">
      <root>
        <mxCell id="0" />
        <mxCell id="1" parent="0" />
        <mxCell id="7baba1c4bc27f4b0-2" value="UI" style="shape=umlLifeline;perimeter=lifelinePerimeter;whiteSpace=wrap;html=1;container=1;collapsible=0;recursiveResize=0;outlineConnect=0;rounded=1;shadow=0;comic=0;labelBackgroundColor=none;strokeWidth=1;fontFamily=Verdana;fontSize=12;align=center;" parent="1" vertex="1">
          <mxGeometry x="240" y="80" width="100" height="580" as="geometry" />
        </mxCell>
        <mxCell id="7baba1c4bc27f4b0-10" value="" style="html=1;points=[];perimeter=orthogonalPerimeter;rounded=0;shadow=0;comic=0;labelBackgroundColor=none;strokeWidth=1;fontFamily=Verdana;fontSize=12;align=center;" parent="7baba1c4bc27f4b0-2" vertex="1">
          <mxGeometry x="45" y="110" width="10" height="242" as="geometry" />
        </mxCell>
        <mxCell id="7baba1c4bc27f4b0-11" value="Zutaten eingeben" style="html=1;verticalAlign=bottom;endArrow=block;labelBackgroundColor=none;fontFamily=Verdana;fontSize=12;edgeStyle=elbowEdgeStyle;elbow=vertical;" parent="7baba1c4bc27f4b0-2" edge="1">
          <mxGeometry relative="1" as="geometry">
            <mxPoint x="-85" y="110.00037037037032" as="sourcePoint" />
            <mxPoint x="50" y="110" as="targetPoint" />
          </mxGeometry>
        </mxCell>
        <mxCell id="4ad-5CgUBbmUOBfjbVFW-1" value="sendet Zutaten" style="html=1;verticalAlign=bottom;endArrow=block;labelBackgroundColor=none;fontFamily=Verdana;fontSize=12;edgeStyle=elbowEdgeStyle;elbow=vertical;" parent="7baba1c4bc27f4b0-2" target="7baba1c4bc27f4b0-3" edge="1">
          <mxGeometry relative="1" as="geometry">
            <mxPoint x="55" y="161" as="sourcePoint" />
            <Array as="points">
              <mxPoint x="60" y="161" />
            </Array>
            <mxPoint x="185" y="161" as="targetPoint" />
          </mxGeometry>
        </mxCell>
        <mxCell id="7baba1c4bc27f4b0-3" value="Lazy Cook System" style="shape=umlLifeline;perimeter=lifelinePerimeter;whiteSpace=wrap;html=1;container=1;collapsible=0;recursiveResize=0;outlineConnect=0;rounded=1;shadow=0;comic=0;labelBackgroundColor=none;strokeWidth=1;fontFamily=Verdana;fontSize=12;align=center;" parent="1" vertex="1">
          <mxGeometry x="400" y="80" width="100" height="580" as="geometry" />
        </mxCell>
        <mxCell id="7baba1c4bc27f4b0-13" value="" style="html=1;points=[];perimeter=orthogonalPerimeter;rounded=0;shadow=0;comic=0;labelBackgroundColor=none;strokeWidth=1;fontFamily=Verdana;fontSize=12;align=center;" parent="7baba1c4bc27f4b0-3" vertex="1">
          <mxGeometry x="45" y="140" width="10" height="192" as="geometry" />
        </mxCell>
        <mxCell id="7baba1c4bc27f4b0-5" value="Datenbank" style="shape=umlLifeline;perimeter=lifelinePerimeter;whiteSpace=wrap;html=1;container=1;collapsible=0;recursiveResize=0;outlineConnect=0;rounded=1;shadow=0;comic=0;labelBackgroundColor=none;strokeWidth=1;fontFamily=Verdana;fontSize=12;align=center;" parent="1" vertex="1">
          <mxGeometry x="582" y="80" width="100" height="580" as="geometry" />
        </mxCell>
        <mxCell id="7baba1c4bc27f4b0-19" value="" style="html=1;points=[];perimeter=orthogonalPerimeter;rounded=0;shadow=0;comic=0;labelBackgroundColor=none;strokeWidth=1;fontFamily=Verdana;fontSize=12;align=center;" parent="1" vertex="1">
          <mxGeometry x="627" y="276" width="10" height="40" as="geometry" />
        </mxCell>
        <mxCell id="7baba1c4bc27f4b0-20" value="getRezepteMit (Zutaten)" style="html=1;verticalAlign=bottom;endArrow=block;entryX=0;entryY=0;labelBackgroundColor=none;fontFamily=Verdana;fontSize=12;edgeStyle=elbowEdgeStyle;elbow=vertical;" parent="1" target="7baba1c4bc27f4b0-19" edge="1">
          <mxGeometry relative="1" as="geometry">
            <mxPoint x="457" y="276" as="sourcePoint" />
          </mxGeometry>
        </mxCell>
        <mxCell id="7baba1c4bc27f4b0-21" value="Rezepte Liste" style="html=1;verticalAlign=bottom;endArrow=open;dashed=1;endSize=8;labelBackgroundColor=none;fontFamily=Verdana;fontSize=12;edgeStyle=elbowEdgeStyle;elbow=vertical;" parent="1" edge="1">
          <mxGeometry relative="1" as="geometry">
            <mxPoint x="457" y="302" as="targetPoint" />
            <Array as="points">
              <mxPoint x="532" y="302" />
              <mxPoint x="562" y="302" />
            </Array>
            <mxPoint x="627" y="302" as="sourcePoint" />
          </mxGeometry>
        </mxCell>
        <mxCell id="4ad-5CgUBbmUOBfjbVFW-4" value="Anzeigen der Rezepte" style="html=1;verticalAlign=bottom;endArrow=open;dashed=1;endSize=8;labelBackgroundColor=none;fontFamily=Verdana;fontSize=12;edgeStyle=elbowEdgeStyle;elbow=vertical;" parent="1" edge="1">
          <mxGeometry relative="1" as="geometry">
            <mxPoint x="294" y="380" as="targetPoint" />
            <Array as="points">
              <mxPoint x="359" y="380" />
              <mxPoint x="389" y="380" />
            </Array>
            <mxPoint x="450" y="380" as="sourcePoint" />
          </mxGeometry>
        </mxCell>
        <mxCell id="4ad-5CgUBbmUOBfjbVFW-5" value="Sieht Rezepte" style="html=1;verticalAlign=bottom;endArrow=open;dashed=1;endSize=8;labelBackgroundColor=none;fontFamily=Verdana;fontSize=12;edgeStyle=elbowEdgeStyle;elbow=vertical;" parent="1" edge="1">
          <mxGeometry relative="1" as="geometry">
            <mxPoint x="156" y="419" as="targetPoint" />
            <Array as="points">
              <mxPoint x="201" y="419" />
              <mxPoint x="231" y="419" />
            </Array>
            <mxPoint x="285.5000000000001" y="419" as="sourcePoint" />
          </mxGeometry>
        </mxCell>
        <mxCell id="yC0ruX1pmd9BREJZbnWH-3" value="" style="endArrow=none;dashed=1;html=1;rounded=0;" edge="1" parent="1" source="yC0ruX1pmd9BREJZbnWH-1">
          <mxGeometry width="50" height="50" relative="1" as="geometry">
            <mxPoint x="145" y="160" as="sourcePoint" />
            <mxPoint x="145" y="120" as="targetPoint" />
          </mxGeometry>
        </mxCell>
        <mxCell id="yC0ruX1pmd9BREJZbnWH-4" value="" style="endArrow=none;dashed=1;html=1;rounded=0;" edge="1" parent="1" target="7baba1c4bc27f4b0-9">
          <mxGeometry width="50" height="50" relative="1" as="geometry">
            <mxPoint x="145" y="670" as="sourcePoint" />
            <mxPoint x="120" y="120" as="targetPoint" />
          </mxGeometry>
        </mxCell>
        <mxCell id="7baba1c4bc27f4b0-9" value="" style="html=1;points=[];perimeter=orthogonalPerimeter;rounded=0;shadow=0;comic=0;labelBackgroundColor=none;strokeWidth=1;fontFamily=Verdana;fontSize=12;align=center;" parent="1" vertex="1">
          <mxGeometry x="140" y="160" width="10" height="440" as="geometry" />
        </mxCell>
        <mxCell id="yC0ruX1pmd9BREJZbnWH-7" value="" style="endArrow=none;dashed=1;html=1;rounded=0;" edge="1" parent="1" target="yC0ruX1pmd9BREJZbnWH-1">
          <mxGeometry width="50" height="50" relative="1" as="geometry">
            <mxPoint x="145" y="160" as="sourcePoint" />
            <mxPoint x="145" y="120" as="targetPoint" />
          </mxGeometry>
        </mxCell>
        <mxCell id="yC0ruX1pmd9BREJZbnWH-1" value="Atze" style="shape=umlActor;verticalLabelPosition=bottom;verticalAlign=top;html=1;outlineConnect=0;" vertex="1" parent="1">
          <mxGeometry x="130" y="57" width="30" height="60" as="geometry" />
        </mxCell>
      </root>
    </mxGraphModel>
  </diagram>
</mxfile>
